<svg width="48" height="48" viewBox="0 0 48 48" fill="none" xmlns="http://www.w3.org/2000/svg">
<path d="M26.6286 37.3777C26.6286 36.8402 26.1928 36.4044 25.6552 36.4044H22.3448C21.8072 36.4044 21.3714 36.8402 21.3714 37.3777V45.0267C21.3714 45.5642 20.9357 46 20.3981 46H17.0876C16.5501 46 16.1143 45.5642 16.1143 45.0267V31.1103H31.8857V45.0267C31.8857 45.5642 31.4499 46 30.9124 46H27.6019C27.0644 46 26.6286 45.5642 26.6286 45.0267V37.3777ZM10.8571 31.1103V35.4311C10.8571 35.9686 10.4214 36.4044 9.88381 36.4044H1.97334C1.43578 36.4044 1 35.9686 1 35.4311V32.0836C1 31.5461 1.43578 31.1103 1.97334 31.1103H10.8571ZM46.0267 31.1103C46.5642 31.1103 47 31.5461 47 32.0836V35.4311C47 35.9686 46.5642 36.4044 46.0267 36.4044H38.1162C37.5786 36.4044 37.1429 35.9686 37.1429 35.4311V31.1103H46.0267ZM25.6552 11.2574C26.1928 11.2574 26.6286 10.8216 26.6286 10.284V1.97334C26.6286 1.43578 27.0643 1 27.6019 1H30.9124C31.4499 1 31.8857 1.43578 31.8857 1.97334V16.5515H17.0876C16.5501 16.5515 16.1143 16.9872 16.1143 17.5248V31.1103H10.8571V17.5248C10.8571 16.9872 10.4214 16.5515 9.88381 16.5515H1.97334C1.43578 16.5515 1 16.1157 1 15.5781V12.2307C1 11.6931 1.43578 11.2574 1.97334 11.2574H25.6552ZM37.1429 16.5515V31.1103H31.8857V16.5515H37.1429ZM46.0267 11.2574C46.5642 11.2574 47 11.6931 47 12.2307V15.5781C47 16.1157 46.5642 16.5515 46.0267 16.5515H37.1429V12.2307C37.1429 11.6931 37.5786 11.2574 38.1162 11.2574H46.0267ZM20.3981 1C20.9357 1 21.3714 1.43578 21.3714 1.97334V6.97519C21.3714 7.51275 20.9357 7.94853 20.3981 7.94853H17.0876C16.5501 7.94853 16.1143 7.51275 16.1143 6.97519V1.97334C16.1143 1.43578 16.5501 1 17.0876 1H20.3981Z" fill="#4469E0"/>
</svg>
