<svg width="1235" height="274" viewBox="0 0 1235 274" fill="none" xmlns="http://www.w3.org/2000/svg">
<path d="M123.91 193.513V215.544H21.7509V193.513H123.91ZM27.0834 11.2264V215.544H-1.41561e-06V11.2264H27.0834ZM231.901 189.584V111.421C231.901 105.433 230.685 100.241 228.252 95.8444C225.914 91.3539 222.359 87.8925 217.587 85.4601C212.816 83.0277 206.922 81.8116 199.906 81.8116C193.357 81.8116 187.604 82.9342 182.646 85.1794C177.781 87.4247 173.945 90.3716 171.139 94.0201C168.426 97.6687 167.069 101.598 167.069 105.808H141.109C141.109 100.382 142.512 95.0024 145.318 89.6699C148.125 84.3375 152.148 79.5195 157.387 75.2161C162.719 70.8192 169.081 67.3577 176.471 64.8318C183.955 62.2124 192.282 60.9026 201.45 60.9026C212.489 60.9026 222.218 62.7737 230.638 66.5158C239.151 70.2579 245.793 75.9178 250.565 83.4955C255.429 90.9797 257.862 100.382 257.862 111.701V182.427C257.862 187.479 258.283 192.858 259.125 198.565C260.06 204.271 261.417 209.183 263.194 213.299V215.544H236.111C234.801 212.551 233.772 208.575 233.024 203.617C232.275 198.565 231.901 193.887 231.901 189.584ZM236.391 123.489L236.672 141.732H210.431C203.04 141.732 196.445 142.34 190.644 143.556C184.844 144.679 179.979 146.409 176.05 148.748C172.121 151.087 169.127 154.034 167.069 157.589C165.011 161.05 163.982 165.12 163.982 169.797C163.982 174.569 165.058 178.919 167.21 182.848C169.361 186.777 172.589 189.911 176.892 192.25C181.289 194.495 186.668 195.618 193.03 195.618C200.982 195.618 207.998 193.934 214.079 190.566C220.16 187.198 224.978 183.082 228.533 178.217C232.182 173.352 234.146 168.628 234.427 164.044L245.513 176.533C244.858 180.462 243.08 184.813 240.18 189.584C237.28 194.355 233.398 198.939 228.533 203.336C223.762 207.639 218.055 211.241 211.413 214.141C204.864 216.948 197.474 218.351 189.241 218.351C178.95 218.351 169.923 216.34 162.158 212.317C154.486 208.294 148.499 202.915 144.196 196.179C139.986 189.35 137.881 181.725 137.881 173.306C137.881 165.167 139.471 158.01 142.652 151.835C145.833 145.567 150.417 140.375 156.404 136.259C162.392 132.049 169.595 128.868 178.015 126.717C186.435 124.565 195.837 123.489 206.221 123.489H236.391ZM289.935 0.000160217H316.036V186.075L313.791 215.544H289.935V0.000160217ZM418.616 138.364V141.311C418.616 152.35 417.306 162.594 414.687 172.043C412.068 181.398 408.232 189.537 403.18 196.46C398.128 203.383 391.954 208.762 384.657 212.598C377.36 216.433 368.987 218.351 359.538 218.351C349.902 218.351 341.436 216.714 334.139 213.44C326.935 210.072 320.854 205.254 315.896 198.986C310.938 192.718 306.962 185.14 303.968 176.253C301.068 167.365 299.056 157.355 297.934 146.222V133.312C299.056 122.086 301.068 112.029 303.968 103.141C306.962 94.254 310.938 86.6763 315.896 80.4083C320.854 74.0467 326.935 69.2288 334.139 65.9545C341.342 62.5866 349.715 60.9026 359.257 60.9026C368.8 60.9026 377.266 62.7737 384.657 66.5158C392.047 70.1643 398.222 75.4032 403.18 82.2325C408.232 89.0619 412.068 97.2477 414.687 106.79C417.306 116.239 418.616 126.763 418.616 138.364ZM392.515 141.311V138.364C392.515 130.786 391.813 123.676 390.41 117.034C389.007 110.298 386.762 104.404 383.674 99.3526C380.587 94.2072 376.518 90.1845 371.466 87.2844C366.414 84.2907 360.193 82.7939 352.802 82.7939C346.254 82.7939 340.547 83.9165 335.682 86.1617C330.911 88.407 326.841 91.4474 323.474 95.2831C320.106 99.0252 317.346 103.329 315.194 108.193C313.136 112.964 311.592 117.923 310.563 123.068V156.887C312.06 163.436 314.493 169.751 317.86 175.832C321.322 181.819 325.906 186.73 331.613 190.566C337.413 194.402 344.57 196.319 353.083 196.319C360.099 196.319 366.087 194.916 371.045 192.11C376.097 189.209 380.166 185.234 383.253 180.182C386.434 175.13 388.773 169.283 390.27 162.641C391.767 155.998 392.515 148.888 392.515 141.311ZM468.932 0.000160217V215.544H442.831V0.000160217H468.932ZM561.689 63.7092L495.454 134.575L458.408 173.025L456.303 145.38L482.825 113.666L529.975 63.7092H561.689ZM537.974 215.544L483.807 143.135L497.279 119.981L568.565 215.544H537.974ZM640.071 218.351C629.5 218.351 619.911 216.574 611.304 213.019C602.791 209.37 595.447 204.271 589.272 197.723C583.191 191.174 578.514 183.409 575.239 174.428C571.965 165.447 570.328 155.624 570.328 144.959V139.066C570.328 126.717 572.152 115.724 575.801 106.088C579.449 96.3589 584.408 88.1263 590.676 81.3906C596.944 74.6548 604.053 69.5562 612.005 66.0948C619.957 62.6334 628.19 60.9026 636.703 60.9026C647.555 60.9026 656.91 62.7737 664.769 66.5158C672.721 70.2579 679.223 75.4968 684.274 82.2325C689.326 88.8748 693.068 96.7331 695.501 105.808C697.933 114.789 699.149 124.612 699.149 135.277V146.924H585.764V125.734H673.189V123.77C672.814 117.034 671.411 110.485 668.979 104.124C666.64 97.7622 662.898 92.5233 657.752 88.407C652.607 84.2907 645.591 82.2325 636.703 82.2325C630.809 82.2325 625.383 83.4955 620.425 86.0214C615.467 88.4538 611.21 92.1023 607.655 96.967C604.1 101.832 601.34 107.772 599.376 114.789C597.411 121.805 596.429 129.897 596.429 139.066V144.959C596.429 152.163 597.411 158.945 599.376 165.307C601.434 171.575 604.381 177.094 608.217 181.866C612.146 186.637 616.87 190.379 622.39 193.092C628.003 195.805 634.364 197.161 641.474 197.161C650.642 197.161 658.407 195.29 664.769 191.548C671.13 187.806 676.697 182.801 681.468 176.533L697.185 189.022C693.91 193.981 689.747 198.705 684.695 203.196C679.644 207.686 673.422 211.335 666.032 214.141C658.735 216.948 650.081 218.351 640.071 218.351ZM783.846 218.351C773.274 218.351 763.685 216.574 755.079 213.019C746.565 209.37 739.221 204.271 733.047 197.723C726.966 191.174 722.289 183.409 719.014 174.428C715.74 165.447 714.103 155.624 714.103 144.959V139.066C714.103 126.717 715.927 115.724 719.575 106.088C723.224 96.3589 728.182 88.1263 734.45 81.3906C740.718 74.6548 747.828 69.5562 755.78 66.0948C763.732 62.6334 771.965 60.9026 780.478 60.9026C791.33 60.9026 800.685 62.7737 808.544 66.5158C816.496 70.2579 822.997 75.4968 828.049 82.2325C833.101 88.8748 836.843 96.7331 839.276 105.808C841.708 114.789 842.924 124.612 842.924 135.277V146.924H729.539V125.734H816.963V123.77C816.589 117.034 815.186 110.485 812.753 104.124C810.415 97.7622 806.673 92.5233 801.527 88.407C796.382 84.2907 789.365 82.2325 780.478 82.2325C774.584 82.2325 769.158 83.4955 764.2 86.0214C759.242 88.4538 754.985 92.1023 751.43 96.967C747.875 101.832 745.115 107.772 743.151 114.789C741.186 121.805 740.204 129.897 740.204 139.066V144.959C740.204 152.163 741.186 158.945 743.151 165.307C745.209 171.575 748.156 177.094 751.991 181.866C755.921 186.637 760.645 190.379 766.164 193.092C771.778 195.805 778.139 197.161 785.249 197.161C794.417 197.161 802.182 195.29 808.544 191.548C814.905 187.806 820.472 182.801 825.243 176.533L840.959 189.022C837.685 193.981 833.522 198.705 828.47 203.196C823.418 207.686 817.197 211.335 809.807 214.141C802.51 216.948 793.856 218.351 783.846 218.351ZM890.574 92.8975V273.921H864.473V63.7092H888.329L890.574 92.8975ZM992.873 138.364V141.311C992.873 152.35 991.564 162.594 988.944 172.043C986.325 181.398 982.489 189.537 977.437 196.46C972.479 203.383 966.351 208.762 959.054 212.598C951.757 216.433 943.384 218.351 933.935 218.351C924.299 218.351 915.786 216.761 908.396 213.58C901.005 210.399 894.737 205.768 889.592 199.687C884.446 193.606 880.33 186.309 877.243 177.796C874.249 169.283 872.191 159.694 871.068 149.029V133.312C872.191 122.086 874.296 112.029 877.383 103.141C880.47 94.254 884.54 86.6763 889.592 80.4083C894.737 74.0467 900.958 69.2288 908.255 65.9545C915.552 62.5866 923.972 60.9026 933.514 60.9026C943.057 60.9026 951.523 62.7737 958.914 66.5158C966.304 70.1643 972.526 75.4032 977.577 82.2325C982.629 89.0619 986.418 97.2477 988.944 106.79C991.564 116.239 992.873 126.763 992.873 138.364ZM966.772 141.311V138.364C966.772 130.786 965.977 123.676 964.387 117.034C962.796 110.298 960.317 104.404 956.949 99.3526C953.675 94.2072 949.465 90.1845 944.32 87.2844C939.174 84.2907 933.047 82.7939 925.937 82.7939C919.388 82.7939 913.681 83.9165 908.817 86.1617C904.045 88.407 899.976 91.4474 896.608 95.2831C893.24 99.0252 890.48 103.329 888.329 108.193C886.27 112.964 884.727 117.923 883.698 123.068V159.413C885.569 165.962 888.188 172.136 891.556 177.936C894.924 183.643 899.415 188.274 905.028 191.829C910.641 195.29 917.704 197.021 926.217 197.021C933.234 197.021 939.268 195.571 944.32 192.671C949.465 189.677 953.675 185.608 956.949 180.462C960.317 175.317 962.796 169.423 964.387 162.781C965.977 156.045 966.772 148.888 966.772 141.311ZM1080.38 218.351C1069.8 218.351 1060.22 216.574 1051.61 213.019C1043.1 209.37 1035.75 204.271 1029.58 197.723C1023.5 191.174 1018.82 183.409 1015.54 174.428C1012.27 165.447 1010.63 155.624 1010.63 144.959V139.066C1010.63 126.717 1012.46 115.724 1016.11 106.088C1019.75 96.3589 1024.71 88.1263 1030.98 81.3906C1037.25 74.6548 1044.36 69.5562 1052.31 66.0948C1060.26 62.6334 1068.5 60.9026 1077.01 60.9026C1087.86 60.9026 1097.22 62.7737 1105.07 66.5158C1113.03 70.2579 1119.53 75.4968 1124.58 82.2325C1129.63 88.8748 1133.37 96.7331 1135.81 105.808C1138.24 114.789 1139.45 124.612 1139.45 135.277V146.924H1026.07V125.734H1113.49V123.77C1113.12 117.034 1111.72 110.485 1109.28 104.124C1106.95 97.7622 1103.2 92.5233 1098.06 88.407C1092.91 84.2907 1085.9 82.2325 1077.01 82.2325C1071.11 82.2325 1065.69 83.4955 1060.73 86.0214C1055.77 88.4538 1051.52 92.1023 1047.96 96.967C1044.41 101.832 1041.65 107.772 1039.68 114.789C1037.72 121.805 1036.73 129.897 1036.73 139.066V144.959C1036.73 152.163 1037.72 158.945 1039.68 165.307C1041.74 171.575 1044.69 177.094 1048.52 181.866C1052.45 186.637 1057.18 190.379 1062.7 193.092C1068.31 195.805 1074.67 197.161 1081.78 197.161C1090.95 197.161 1098.71 195.29 1105.07 191.548C1111.44 187.806 1117 182.801 1121.77 176.533L1137.49 189.022C1134.22 193.981 1130.05 198.705 1125 203.196C1119.95 207.686 1113.73 211.335 1106.34 214.141C1099.04 216.948 1090.39 218.351 1080.38 218.351ZM1187.1 87.565V215.544H1161.14V63.7092H1186.4L1187.1 87.565ZM1234.54 62.8672L1234.4 87.0037C1232.24 86.5359 1230.19 86.2553 1228.22 86.1617C1226.35 85.9746 1224.2 85.8811 1221.77 85.8811C1215.78 85.8811 1210.49 86.8166 1205.91 88.6876C1201.32 90.5587 1197.44 93.1782 1194.26 96.546C1191.08 99.9139 1188.55 103.937 1186.68 108.614C1184.91 113.198 1183.74 118.25 1183.18 123.77L1175.88 127.98C1175.88 118.811 1176.77 110.205 1178.54 102.159C1180.42 94.1137 1183.27 87.0037 1187.1 80.8293C1190.94 74.5613 1195.8 69.6966 1201.7 66.2351C1207.69 62.6801 1214.8 60.9026 1223.03 60.9026C1224.9 60.9026 1227.05 61.1365 1229.48 61.6043C1231.92 61.9785 1233.6 62.3995 1234.54 62.8672Z" fill="#0E1621"/>
</svg>
