<svg width="50" height="50" viewBox="0 0 50 50" fill="none" xmlns="http://www.w3.org/2000/svg">
<rect width="50" height="50" rx="6" fill="#4469E0"/>
<path d="M22.8652 17L22.8653 16H22.8652V17ZM29.7295 23.8652L30.7295 23.8653V23.8652H29.7295ZM27.9619 28.4609L27.2195 27.791L26.5832 28.4962L27.2547 29.168L27.9619 28.4609ZM32.1348 32.6348L31.4276 33.3418L31.4277 33.3419L32.1348 32.6348ZM32.0898 33.6992L32.7343 34.4639L32.7345 34.4637L32.0898 33.6992ZM31.1123 33.6572L31.8194 32.9501L31.8193 32.95L31.1123 33.6572ZM26.8828 29.4287L27.5898 28.7215L26.9872 28.119L26.2967 28.6185L26.8828 29.4287ZM22.8652 30.7295V31.7295H22.8653L22.8652 30.7295ZM16 23.8652H15V23.8653L16 23.8652ZM22.8652 17L22.8652 18C26.104 18.0002 28.7295 20.6262 28.7295 23.8652H29.7295H30.7295C30.7295 19.5219 27.2088 16.0003 22.8653 16L22.8652 17ZM29.7295 23.8652L28.7295 23.8652C28.7294 25.3757 28.1585 26.7503 27.2195 27.791L27.9619 28.4609L28.7044 29.1308C29.9612 27.7379 30.7294 25.8908 30.7295 23.8653L29.7295 23.8652ZM27.9619 28.4609L27.2547 29.168L31.4276 33.3418L32.1348 32.6348L32.842 31.9277L28.6691 27.7539L27.9619 28.4609ZM32.1348 32.6348L31.4277 33.3419C31.3135 33.2277 31.3208 33.0396 31.4452 32.9347L32.0898 33.6992L32.7345 34.4637C33.5066 33.8126 33.5551 32.6409 32.8419 31.9277L32.1348 32.6348ZM32.0898 33.6992L31.4454 32.9345C31.556 32.8414 31.7184 32.8491 31.8194 32.9501L31.1123 33.6572L30.4052 34.3643C31.0374 34.9965 32.0493 35.0412 32.7343 34.4639L32.0898 33.6992ZM31.1123 33.6572L31.8193 32.95L27.5898 28.7215L26.8828 29.4287L26.1758 30.1359L30.4053 34.3644L31.1123 33.6572ZM26.8828 29.4287L26.2967 28.6185C25.331 29.3171 24.1477 29.7294 22.8652 29.7295L22.8652 30.7295L22.8653 31.7295C24.5845 31.7294 26.1753 31.1748 27.4689 30.2389L26.8828 29.4287ZM22.8652 30.7295V29.7295C19.6262 29.7295 17.0002 27.104 17 23.8652L16 23.8652L15 23.8653C15.0003 28.2088 18.5219 31.7295 22.8652 31.7295V30.7295ZM16 23.8652H17C17 20.6262 19.6262 18 22.8652 18V17V16C18.5216 16 15 19.5216 15 23.8652H16Z" fill="white"/>
<path d="M22.9942 20.4942V27.4942M19.5 24L26.5 24" stroke="white" stroke-width="1.5"/>
</svg>
