<svg width="40" height="40" viewBox="0 0 40 40" fill="none" xmlns="http://www.w3.org/2000/svg">
<path d="M21.2034 31.0139C21.2034 30.4764 20.7677 30.0406 20.2301 30.0406H17.8274C17.2898 30.0406 16.854 30.4764 16.854 31.0139V36.8296C16.854 37.3672 16.4182 37.8029 15.8807 37.8029H13.4779C12.9404 37.8029 12.5046 37.3672 12.5046 36.8296V25.7579H25.5529V36.8296C25.5529 37.3672 25.1171 37.8029 24.5795 37.8029H22.1768C21.6392 37.8029 21.2034 37.3672 21.2034 36.8296V31.0139ZM8.15517 25.7579V29.0672C8.15517 29.6048 7.71939 30.0406 7.18183 30.0406H0.973337C0.435778 30.0406 0 29.6048 0 29.0672V26.7312C0 26.1937 0.435778 25.7579 0.973337 25.7579H8.15517ZM37.0841 25.7579C37.6217 25.7579 38.0575 26.1937 38.0575 26.7312V29.0672C38.0575 29.6048 37.6217 30.0406 37.0841 30.0406H30.8756C30.3381 30.0406 29.9023 29.6048 29.9023 29.0672V25.7579H37.0841ZM20.2301 9.69784C20.7677 9.69784 21.2034 9.26206 21.2034 8.72451V2.37348C21.2034 1.83592 21.6392 1.40015 22.1768 1.40015H24.5795C25.1171 1.40015 25.5529 1.83592 25.5529 2.37348V13.9805H13.4779C12.9404 13.9805 12.5046 14.4163 12.5046 14.9539V25.7579H8.15517V14.9539C8.15517 14.4163 7.71939 13.9805 7.18183 13.9805H0.973337C0.435778 13.9805 0 13.5447 0 13.0072V10.6712C0 10.1336 0.435778 9.69784 0.973337 9.69784H20.2301ZM29.9023 13.9805V25.7579H25.5529V13.9805H29.9023ZM37.0841 9.69784C37.6217 9.69784 38.0575 10.1336 38.0575 10.6712V13.0072C38.0575 13.5447 37.6217 13.9805 37.0841 13.9805H29.9023V10.6712C29.9023 10.1336 30.3381 9.69784 30.8756 9.69784H37.0841ZM15.8807 1.40015C16.4182 1.40015 16.854 1.83592 16.854 2.37348V6.04783C16.854 6.58539 16.4182 7.02117 15.8807 7.02117H13.4779C12.9404 7.02117 12.5046 6.58539 12.5046 6.04783V2.37348C12.5046 1.83592 12.9404 1.40015 13.4779 1.40015H15.8807Z" fill="#4469E0"/>
</svg>
